<svg width="302" height="392" fill="none" xmlns="http://www.w3.org/2000/svg"><path fill="#C4C4C4" d="M0 0h302v392H0z"/><path d="M222.011 0h53.87v88.739l-26.527-28.862-27.343 28.861V0zM0 0h17.908v392H0z" fill="#9C9C9C"/><path d="M205.52 341.219c.427 0 1.172-.031 2.234-.094 1.448-.094 2.568-.141 3.359-.141 1.959 0 3.584.25 4.875.75 1.303.5 2.266 1.204 2.891 2.11.625.896.938 1.948.938 3.156 0 .865-.141 1.667-.422 2.406a5.101 5.101 0 01-1.235 1.891 4.31 4.31 0 01-1.906 1.062c.938.105 1.771.396 2.5.875a4.818 4.818 0 011.703 1.891c.417.781.625 1.672.625 2.672 0 2.344-.739 4.167-2.219 5.469-1.479 1.302-3.984 1.953-7.515 1.953-1.511 0-3.417-.073-5.719-.219h-2.516v-23.797l2.407.016zm5.5 9.969c1.437 0 2.474-.292 3.109-.876.635-.583.953-1.546.953-2.89 0-.969-.385-1.677-1.156-2.125-.76-.448-1.875-.672-3.344-.672-.416 0-.906.016-1.469.047-.562.031-.921.083-1.078.156v6.219c.282.052.735.088 1.36.109.625.021 1.166.032 1.625.032zm.468 10.593c1.553 0 2.698-.286 3.438-.859.75-.573 1.125-1.542 1.125-2.906 0-1.219-.37-2.105-1.109-2.657-.73-.562-1.886-.843-3.469-.843-.604 0-1.276.01-2.016.031-.739.021-1.213.047-1.422.078v6.75c.198.156.636.266 1.313.328.687.052 1.401.078 2.14.078zm12.407-5.859c0-1.906.375-3.531 1.125-4.875.75-1.354 1.791-2.375 3.125-3.063 1.333-.698 2.864-1.046 4.593-1.046 1.969 0 3.589.416 4.86 1.25a7.069 7.069 0 012.765 3.328c.584 1.385.875 2.953.875 4.703 0 1.916-.375 3.552-1.125 4.906-.75 1.354-1.791 2.38-3.125 3.078-1.333.698-2.859 1.047-4.578 1.047-1.979 0-3.604-.417-4.875-1.25a7.26 7.26 0 01-2.781-3.344c-.573-1.406-.859-2.984-.859-4.734zm12.297.312c0-1.666-.297-3.052-.891-4.156-.594-1.114-1.495-1.672-2.703-1.672-2.438 0-3.656 1.813-3.656 5.438 0 1.094.125 2.094.375 3 .26.896.661 1.614 1.203 2.156.552.542 1.239.812 2.062.812 2.406 0 3.61-1.859 3.61-5.578zm8.046-.312c0-1.906.375-3.531 1.125-4.875.75-1.354 1.792-2.375 3.125-3.063 1.334-.698 2.865-1.046 4.594-1.046 1.969 0 3.589.416 4.86 1.25a7.08 7.08 0 012.765 3.328c.584 1.385.875 2.953.875 4.703 0 1.916-.375 3.552-1.125 4.906-.75 1.354-1.791 2.38-3.125 3.078-1.333.698-2.859 1.047-4.578 1.047-1.979 0-3.604-.417-4.875-1.25a7.26 7.26 0 01-2.781-3.344c-.573-1.406-.86-2.984-.86-4.734zm12.297.312c0-1.666-.297-3.052-.89-4.156-.594-1.114-1.495-1.672-2.703-1.672-2.438 0-3.657 1.813-3.657 5.438 0 1.094.125 2.094.375 3 .261.896.662 1.614 1.203 2.156.553.542 1.24.812 2.063.812 2.406 0 3.609-1.859 3.609-5.578zm15.891 1.344l-1.906 2.078.062 2.016V365h-4.875v-25.953h4.875v10.687l-.156 4.485 6.016-7.031h5.515l-6.359 6.921L282.582 365h-5.547l-4.609-7.422z" fill="#fff"/></svg>